<?xml version="1.0" encoding="utf-8"?>
<!-- Generator: Adobe Illustrator 18.1.1, SVG Export Plug-In . SVG Version: 6.00 Build 0)  -->
<!DOCTYPE svg PUBLIC "-//W3C//DTD SVG 1.1//EN" "http://www.w3.org/Graphics/SVG/1.1/DTD/svg11.dtd">
<svg version="1.1" id="Layer_1" xmlns="http://www.w3.org/2000/svg" xmlns:xlink="http://www.w3.org/1999/xlink" x="0px" y="0px"
	 viewBox="0 0 314.1 86.6" enable-background="new 0 0 314.1 86.6" xml:space="preserve">
<g>
	<circle fill="#82CBED" cx="24.8" cy="36.2" r="24.5"/>
	<circle fill="#FFEFB4" cx="45.8" cy="36.2" r="24.5"/>
	<circle fill="#F2777D" cx="35.3" cy="54.3" r="24.5"/>
	<path fill="#00A990" d="M21.3,34.2c4-2.7,8.8-4.3,13.9-4.3s10,1.6,13.9,4.3C48.5,25.2,43,17.7,35.3,14
		C27.6,17.7,22.1,25.2,21.3,34.2z"/>
	<path fill="#81476F" d="M35.3,58.3c-8.3-3.9-14-12.4-14-22.1c0-0.7,0-1.3,0.1-2C15,38.6,10.8,45.9,10.8,54.3c0,0.7,0,1.3,0.1,2
		c4,2.7,8.8,4.3,13.9,4.3C28.6,60.6,32.1,59.8,35.3,58.3z"/>
	<path fill="#F89E4D" d="M49.2,34.2c0.1,0.7,0.1,1.3,0.1,2c0,9.8-5.7,18.2-14,22.1c3.2,1.5,6.7,2.3,10.5,2.3c5.2,0,10-1.6,13.9-4.3
		c0.1-0.7,0.1-1.3,0.1-2C59.7,45.9,55.6,38.6,49.2,34.2z"/>
	<path fill="#373737" d="M21.3,34.2c-0.1,0.7-0.1,1.3-0.1,2c0,9.8,5.7,18.2,14,22.1c8.3-3.9,14-12.4,14-22.1c0-0.7,0-1.3-0.1-2
		c-4-2.7-8.8-4.3-13.9-4.3S25.3,31.4,21.3,34.2z"/>
</g>
<g>
	<path fill="#373737" d="M79.5,26.7h3l14.8,33.6l14.8-33.6h2.9L98.6,63.5H96L79.5,26.7z"/>
	<path fill="#373737" d="M126.3,26.7h23.5v2.5H129v13.9h16.5v2.5H129v15.5h22.2v2.5h-24.9V26.7z"/>
	<path fill="#373737" d="M164,26.7h2.8l25,32.9V26.7h2.6v36.9h-2.8l-25-32.5v32.5H164V26.7z"/>
	<path fill="#373737" d="M209.4,26.7h2.8l25,32.9V26.7h2.6v36.9H237l-25-32.5v32.5h-2.6V26.7z"/>
	<path fill="#373737" d="M254.8,26.7h2.7v34.4h22.2v2.5h-24.9V26.7z"/>
	<path fill="#373737" d="M291.5,26.7h2.7v36.9h-2.7V26.7z"/>
</g>
<g>
	<path fill="#A0A0A0" d="M301,27.3v-0.6h3.5v0.6H303v5.7h-0.6v-5.7H301z"/>
	<path fill="#A0A0A0" d="M306,32.9l0.9-6.3h0.1l2.6,5.2l2.5-5.2h0.1l0.9,6.3h-0.6l-0.6-4.5l-2.2,4.5h-0.2l-2.3-4.5l-0.6,4.5H306z"/>
</g>
</svg>
